<?xml version="1.0" standalone="no"?><!DOCTYPE svg PUBLIC "-//W3C//DTD SVG 1.1//EN" "http://www.w3.org/Graphics/SVG/1.1/DTD/svg11.dtd"><svg t="1575337268520" class="icon" viewBox="0 0 1024 1024" version="1.1" xmlns="http://www.w3.org/2000/svg" p-id="11203" xmlns:xlink="http://www.w3.org/1999/xlink" width="32" height="32"><defs><style type="text/css"></style></defs><path d="M856.576 358.7584c0-0.768 0-1.536-0.3072-2.304s0-0.4608 0-0.6656-0.4096-1.792-0.6656-2.6112 0 0 0-0.3072c0-0.8704-0.5632-1.6896-0.8704-2.56-0.3072-0.8192-0.6656-1.536-1.024-2.304v-0.4608c-0.3584-0.6656-0.768-1.28-1.1264-1.8944l-0.4096-0.6656-1.2288-1.6896a8.7552 8.7552 0 0 0-0.5632-0.7168 19.5072 19.5072 0 0 0-1.6896-1.8432l-0.3072-0.4096-231.8848-231.4752-0.3584-0.3072c-0.5632-0.6144-1.2288-1.1776-1.8432-1.7408l-0.6656-0.4608-1.792-1.3312-0.5632-0.3072a21.0432 21.0432 0 0 0-1.9968-1.2288h-0.4096c-0.768-0.3584-1.536-0.768-2.304-1.0752a22.528 22.528 0 0 0-2.6112-0.9216 24.4224 24.4224 0 0 0-2.6112-0.6656h-0.7168l-2.2528-0.3584H259.4304a92.16 92.16 0 0 0-92.16 92.16v620.1856a92.16 92.16 0 0 0 92.16 92.16h505.1392a92.16 92.16 0 0 0 92.16-92.16V361.8304q0-1.536-0.1536-3.072zM625.5104 204.8l126.3616 126.3616h-126.3616z m139.0592 638.7712H259.4304a30.72 30.72 0 0 1-30.72-30.72V192a30.72 30.72 0 0 1 30.72-30.72h304.64v200.5504a30.72 30.72 0 0 0 30.72 30.72h200.4992v420.2496a30.72 30.72 0 0 1-30.72 30.72z" fill="#32aaff" p-id="11204"></path><path d="M673.28 564.8896h-322.56a30.72 30.72 0 0 0 0 61.44h322.56a30.72 30.72 0 0 0 0-61.44zM350.72 494.9504h154.4704a30.72 30.72 0 0 0 0-61.44H350.72a30.72 30.72 0 0 0 0 61.44zM673.28 696.32h-322.56a30.72 30.72 0 0 0 0 61.44h322.56a30.72 30.72 0 0 0 0-61.44z" fill="#32aaff" p-id="11205"></path></svg>