<svg t="1575340162929" class="icon" viewBox="0 0 1024 1024" version="1.1" xmlns="http://www.w3.org/2000/svg" p-id="51210" width="32" height="32"><path d="M512 938.666667a426.666667 426.666667 0 1 1 0-853.333334 426.666667 426.666667 0 0 1 0 853.333334z m0-56.888889a369.777778 369.777778 0 1 0 0-739.555556 369.777778 369.777778 0 0 0 0 739.555556z" p-id="51211" fill="#32aaff"></path><path d="M526.222222 505.230222l117.532445 109.624889a28.444444 28.444444 0 1 1-38.798223 41.585778L481.393778 541.184a28.444444 28.444444 0 0 1-12.060445-23.210667v-170.666666a28.444444 28.444444 0 1 1 56.888889 0V505.173333z" p-id="51212" fill="#32aaff"></path></svg>