<?xml version="1.0" standalone="no"?><!DOCTYPE svg PUBLIC "-//W3C//DTD SVG 1.1//EN" "http://www.w3.org/Graphics/SVG/1.1/DTD/svg11.dtd"><svg t="1575338616160" class="icon" viewBox="0 0 1024 1024" version="1.1" xmlns="http://www.w3.org/2000/svg" p-id="30214" xmlns:xlink="http://www.w3.org/1999/xlink" width="32" height="32"><defs><style type="text/css"></style></defs><path d="M521.724 870.84c-127.222 0-268.369 0-268.369 0-28.674 0-51.911-23.071-51.911-51.499l0-617.981c0-28.427 23.237-51.499 51.911-51.499l310.886 0c-0.495 61.633 0.742 102.998 0.742 102.998 0 56.855 46.472 102.997 103.903 102.997 0 0 43.423 0 103.903 0 0 0 0 122.855 0 196.848 0 24.802 51.911 28.098 51.911 0.495 0-74.241 0-197.342 0-197.342l0-51.499-207.724-205.994 0 0.742c-3.379 0-17.138-1.318-51.91-0.742l-311.709 0c-57.431 0-103.903 46.143-103.903 102.998l0 617.981c0 56.855 46.472 102.998 103.903 102.998 0 0 254.114 0 266.886 0 24.967 0 30.322-51.499 1.484-51.499zM616.975 149.863l155.813 154.495-103.903 0c-28.674 0-51.911-23.071-51.911-51.499 0 0 0-41.693 0-102.998zM817.695 626.862l-163.807 183.499-100.525-100.195-50.263 50.098 150.788 150.21 214.069-233.597-50.263-50.015z" p-id="30215" fill="#32aaff"></path></svg>